<?xml version="1.0" standalone="no"?>
<!DOCTYPE svg PUBLIC "-//W3C//DTD SVG 20010904//EN"
 "http://www.w3.org/TR/2001/REC-SVG-20010904/DTD/svg10.dtd">
<svg version="1.0" xmlns="http://www.w3.org/2000/svg"
 width="1920.000000pt" height="1920.000000pt" viewBox="0 0 1920.000000 1920.000000"
 preserveAspectRatio="xMidYMid meet">
<metadata>
Created by potrace 1.14, written by Peter Selinger 2001-2017
</metadata>
<g transform="translate(0.000000,1920.000000) scale(0.100000,-0.100000)"
fill="#000000" stroke="none">
<path d="M9155 17989 c-1842 -103 -3548 -776 -4955 -1955 -363 -304 -736 -678
-1043 -1044 -1438 -1718 -2126 -3923 -1921 -6165 141 -1548 709 -3022 1642
-4262 786 -1044 1771 -1871 2927 -2458 1003 -509 2039 -795 3215 -887 218 -17
942 -17 1160 0 1519 119 2860 578 4085 1397 2080 1391 3427 3618 3689 6100 34
321 41 469 41 885 0 515 -17 756 -86 1235 -290 2011 -1337 3881 -2909 5199
-1236 1036 -2714 1687 -4305 1895 -480 63 -1075 86 -1540 60z m160 -106 c-47
-72 -158 -225 -214 -293 -33 -41 -61 -79 -61 -84 0 -4 15 -6 33 -2 17 3 190 9
382 12 545 10 1004 -23 1489 -108 l120 -20 45 53 c25 30 95 105 157 168 l111
114 58 -14 59 -15 -120 -100 c-65 -55 -154 -124 -196 -154 -43 -29 -77 -55
-75 -56 1 -1 95 -23 208 -48 551 -123 1100 -310 1607 -547 l106 -49 100 68
c117 80 276 172 295 172 15 0 105 -50 99 -54 -10 -9 -307 -140 -375 -166 -46
-17 -83 -33 -83 -35 0 -2 73 -41 163 -88 459 -239 959 -573 1368 -913 76 -63
143 -114 151 -114 8 0 64 17 124 39 60 21 159 52 220 68 l111 30 42 -40 c23
-21 41 -40 39 -42 -7 -8 -300 -55 -403 -66 -60 -6 -111 -12 -113 -14 -1 -1 72
-70 162 -154 388 -358 745 -766 1061 -1210 l109 -153 60 6 c34 3 147 9 252 13
l190 6 32 -52 32 -51 -39 0 c-66 0 -239 19 -374 41 -71 12 -130 19 -133 16 -3
-2 37 -69 87 -148 294 -459 551 -976 739 -1484 35 -93 64 -171 64 -172 1 -1
51 -12 112 -23 60 -11 175 -37 256 -57 l148 -36 17 -53 c9 -30 14 -56 12 -59
-7 -7 -291 102 -424 163 -60 27 -111 49 -112 48 -1 -1 16 -58 38 -126 206
-644 322 -1268 359 -1930 5 -102 9 -241 9 -310 l-2 -125 -8 115 c-25 369 -32
451 -49 602 -108 947 -369 1826 -796 2678 -280 559 -595 1040 -988 1510 -1371
1640 -3340 2631 -5501 2770 -205 13 -734 13 -940 0 -1429 -91 -2766 -551
-3950 -1358 -867 -591 -1634 -1385 -2187 -2267 -445 -708 -753 -1429 -963
-2250 -125 -487 -189 -914 -231 -1545 -8 -135 -18 -247 -20 -249 -8 -8 -4 315
6 484 14 235 62 661 86 760 4 16 -20 41 -108 117 -62 53 -153 137 -202 186
l-89 90 14 58 15 58 99 -120 c55 -65 138 -172 184 -237 55 -77 87 -113 92
-105 3 7 12 45 18 83 80 473 285 1140 516 1682 l77 181 -85 123 c-90 133 -187
298 -187 319 0 14 50 104 54 98 12 -13 150 -333 181 -415 20 -57 40 -103 44
-103 3 1 52 94 108 208 250 507 565 991 970 1491 l23 27 -44 125 c-24 68 -57
174 -73 234 l-30 111 39 43 c21 24 40 42 42 40 9 -9 55 -290 67 -406 6 -68 15
-123 18 -122 3 0 44 46 91 102 120 143 587 609 760 759 189 162 363 300 528
418 l133 95 -6 40 c-3 22 -8 128 -12 236 l-6 195 52 32 51 32 0 -43 c0 -58
-27 -296 -43 -390 -12 -65 -12 -77 -1 -73 7 3 60 36 116 74 446 298 1037 600
1543 787 72 27 134 52 139 56 4 4 17 49 27 101 10 51 33 150 51 221 l32 127
53 17 c29 9 55 14 58 12 5 -6 -99 -284 -144 -382 -17 -38 -31 -72 -31 -77 0
-4 75 17 166 47 514 169 1086 288 1668 348 83 9 151 16 152 18 1 1 25 49 54
107 61 122 137 257 158 283 11 12 30 17 70 17 l54 0 -17 -27z m727 -1483
c2142 -146 4056 -1257 5242 -3043 543 -819 899 -1740 1050 -2717 61 -392 71
-537 71 -1040 0 -503 -10 -645 -71 -1040 -157 -1028 -550 -2008 -1146 -2857
-1077 -1536 -2706 -2552 -4548 -2837 -392 -61 -537 -71 -1040 -71 -503 0 -648
10 -1040 71 -1105 171 -2147 608 -3035 1274 -1407 1055 -2349 2592 -2640 4305
-68 403 -95 726 -95 1155 0 320 9 485 41 775 165 1488 833 2895 1887 3977
1176 1207 2737 1930 4417 2047 177 12 730 13 907 1z m7525 -6230 c131 -62 296
-153 326 -178 12 -11 17 -30 17 -69 0 -29 -2 -53 -5 -53 -3 0 -61 40 -129 89
-124 89 -353 271 -341 271 4 0 63 -27 132 -60z m-15042 -1195 c222 -2121 1301
-3971 3015 -5172 1467 -1028 3340 -1462 5130 -1187 1716 264 3277 1145 4397
2484 509 608 930 1341 1212 2112 237 649 360 1258 416 2063 20 288 22 294 24
75 4 -627 -126 -1357 -369 -2075 -641 -1892 -2029 -3418 -3840 -4222 -1242
-552 -2636 -742 -3970 -542 -1858 278 -3509 1266 -4645 2781 -574 764 -987
1633 -1219 2563 -122 489 -199 1096 -195 1535 l2 145 13 -205 c7 -113 20 -272
29 -355z m-1099 265 c115 -82 334 -256 334 -265 0 -18 -399 189 -452 233 -13
11 -18 30 -18 69 0 29 2 53 5 53 3 0 61 -41 131 -90z m16039 -1172 c61 -53
143 -130 184 -171 l74 -75 -14 -58 -14 -57 -96 114 c-53 63 -133 166 -179 229
-46 63 -88 122 -94 130 -17 23 13 -1 139 -112z m-15664 -933 c123 -45 401
-166 395 -172 -5 -6 -215 36 -368 74 l-147 36 -16 45 c-20 60 -20 76 3 67 9
-4 69 -26 133 -50z m15119 -1238 c44 -76 60 -114 56 -130 -6 -25 -45 -91 -50
-86 -23 27 -226 517 -226 545 0 16 158 -221 220 -329z m-14194 -698 c98 -9
405 -56 411 -63 6 -6 -320 -26 -424 -26 l-111 0 -31 50 -31 50 38 0 c21 0 88
-5 148 -11z m12913 -835 c27 -76 62 -189 78 -250 l30 -110 -39 -44 c-21 -23
-40 -41 -43 -38 -8 8 -54 290 -65 398 -5 58 -13 125 -16 150 -3 25 -3 42 0 39
3 -3 28 -68 55 -145z m-11131 -749 c-10 -11 -290 -104 -394 -132 l-110 -30
-44 39 c-23 21 -41 40 -39 42 9 9 302 57 429 70 172 17 164 17 158 11z m9581
-882 l1 -131 -50 -31 -50 -31 0 43 c0 66 27 300 50 427 11 63 21 120 21 125 5
32 27 -291 28 -402z m-7964 -309 c-120 -82 -281 -181 -325 -197 -23 -9 -35 -6
-74 17 -26 15 -46 29 -44 30 28 23 506 223 538 225 8 1 -35 -33 -95 -75z
m6095 -340 c-11 -60 -37 -175 -57 -256 l-36 -147 -59 -20 -59 -20 7 22 c39
126 212 543 221 533 2 -2 -6 -52 -17 -112z m-4041 -221 c-45 -58 -218 -249
-282 -312 l-75 -74 -58 14 -57 14 113 95 c92 78 355 276 369 279 2 1 -3 -7
-10 -16z m2034 -140 c-46 -111 -203 -403 -228 -423 -7 -6 -37 -10 -65 -8 l-51
3 79 113 c73 105 268 352 277 352 2 0 -3 -17 -12 -37z"/>
<path d="M9225 16309 c-914 -52 -1796 -285 -2610 -689 -1785 -887 -3087 -2520
-3549 -4450 -176 -733 -226 -1493 -150 -2250 213 -2131 1439 -4035 3296 -5123
731 -428 1549 -717 2383 -841 1194 -177 2390 -39 3502 405 1350 538 2509 1524
3260 2774 751 1248 1073 2689 927 4145 -190 1898 -1179 3618 -2733 4755 -1240
906 -2786 1362 -4326 1274z m780 -59 c431 -29 828 -90 1225 -190 2368 -595
4235 -2462 4830 -4830 136 -540 200 -1062 200 -1630 0 -1012 -219 -1978 -654
-2884 -649 -1354 -1768 -2473 -3121 -3122 -1114 -534 -2354 -748 -3585 -619
-1850 194 -3536 1157 -4647 2653 -1000 1345 -1451 2997 -1277 4677 134 1297
664 2551 1503 3555 1180 1412 2856 2266 4691 2389 180 12 659 12 835 1z"/>
<path d="M9205 16009 c-2876 -178 -5290 -2258 -5884 -5069 -543 -2563 510
-5182 2675 -6653 2174 -1477 5034 -1477 7208 0 2635 1790 3560 5227 2180 8101
-910 1895 -2720 3237 -4794 3556 -445 68 -950 92 -1385 65z m685 -144 c555
-18 1190 -138 1740 -327 1899 -654 3369 -2168 3966 -4086 184 -591 275 -1207
275 -1852 0 -982 -210 -1889 -641 -2765 -178 -363 -378 -688 -612 -1000 -887
-1183 -2186 -2028 -3608 -2349 -495 -112 -899 -157 -1405 -157 -553 0 -1019
57 -1555 191 -1250 312 -2424 1051 -3258 2050 -567 679 -988 1471 -1226 2308
-255 894 -307 1850 -150 2781 285 1699 1290 3234 2739 4184 882 577 1837 910
2900 1008 150 14 494 27 600 23 44 -2 150 -6 235 -9z"/>
<path d="M9300 15653 c-36 -2 -146 -10 -245 -18 -1220 -105 -2387 -589 -3340
-1385 -842 -703 -1483 -1629 -1840 -2660 -349 -1006 -427 -2101 -224 -3150
150 -774 449 -1505 886 -2170 475 -721 1091 -1327 1823 -1792 1678 -1066 3792
-1234 5627 -449 868 371 1654 957 2263 1686 915 1096 1410 2459 1410 3885 0
1203 -354 2368 -1023 3370 -726 1087 -1812 1927 -3047 2355 -728 253 -1508
365 -2290 328z m705 -63 c1350 -98 2566 -607 3575 -1497 166 -146 478 -466
613 -628 706 -846 1156 -1824 1331 -2893 87 -529 101 -1111 40 -1657 -130
-1163 -598 -2250 -1370 -3180 -139 -167 -562 -590 -729 -729 -855 -710 -1823
-1155 -2893 -1330 -529 -87 -1111 -101 -1657 -40 -1094 122 -2158 560 -3027
1246 -285 225 -662 590 -881 853 -706 846 -1156 1824 -1331 2893 -87 529 -101
1111 -40 1657 130 1163 602 2259 1371 3180 141 169 461 495 637 649 998 872
2209 1377 3536 1475 158 12 666 12 825 1z"/>
<path d="M9180 15479 c-188 -14 -453 -48 -650 -84 -423 -78 -947 -234 -1075
-322 -281 -192 -292 -428 -39 -844 97 -160 290 -442 499 -728 110 -152 280
-384 376 -516 97 -132 215 -298 264 -370 182 -269 332 -453 492 -607 232 -222
392 -296 586 -269 155 22 276 83 403 204 95 90 155 173 866 1207 267 388 527
763 577 834 228 321 331 534 331 683 0 123 -85 289 -206 403 -128 120 -179
144 -487 225 -368 97 -736 157 -1119 185 -169 12 -649 11 -818 -1z m885 -405
c425 -35 831 -117 1244 -251 190 -62 248 -93 295 -161 41 -58 47 -144 17 -235
-39 -115 -243 -430 -707 -1094 -419 -598 -691 -971 -807 -1106 -298 -350 -514
-417 -796 -248 -181 109 -391 310 -597 571 -246 312 -1156 1619 -1241 1782
-41 79 -40 170 4 258 18 36 45 77 60 92 39 37 333 142 610 218 622 170 1258
228 1918 174z"/>
<path d="M11672 15082 c109 -117 188 -279 196 -402 l5 -75 166 -82 c193 -95
370 -195 529 -299 l114 -75 56 47 c32 26 86 61 122 78 61 29 72 31 177 31 61
0 110 2 108 3 -2 2 -65 48 -140 101 -357 255 -806 500 -1210 661 -181 72 -178
71 -123 12z"/>
<path d="M7140 14957 c-393 -184 -747 -396 -1085 -650 -130 -98 -227 -178
-222 -183 1 -2 30 4 62 13 82 22 268 22 355 -1 36 -9 82 -28 102 -41 21 -14
40 -25 43 -25 3 0 67 41 143 92 165 111 385 241 545 323 l117 60 -7 45 c-5 25
-8 88 -8 140 0 86 3 102 31 160 17 36 46 83 64 103 17 20 28 37 24 37 -5 -1
-79 -33 -164 -73z"/>
<path d="M12919 14238 c-118 -42 -221 -138 -331 -308 -71 -109 -295 -563 -435
-880 -274 -620 -415 -934 -496 -1105 -141 -298 -220 -520 -268 -747 -29 -139
-32 -320 -5 -398 50 -148 173 -280 334 -360 150 -74 198 -80 1262 -165 1170
-93 1322 -105 1410 -115 126 -15 451 -12 542 4 84 15 179 54 217 89 36 34 107
137 139 203 38 77 58 148 73 259 l12 90 -52 208 c-225 905 -649 1724 -1267
2447 -181 212 -599 616 -728 703 -63 44 -189 87 -269 93 -59 4 -84 1 -138 -18z
m24 -304 c39 -6 63 -20 149 -91 894 -735 1534 -1739 1828 -2868 114 -436 117
-553 13 -646 -71 -64 -119 -74 -353 -73 -223 1 -321 8 -930 60 -853 72 -1317
121 -1525 159 -358 66 -537 182 -590 382 -21 78 -21 266 1 390 33 199 116 458
234 733 234 547 823 1785 884 1857 34 41 88 74 146 89 53 15 81 16 143 8z"/>
<path d="M5913 14085 c-34 -7 -101 -29 -148 -48 -100 -41 -167 -99 -403 -342
-716 -740 -1237 -1681 -1481 -2675 -78 -318 -101 -458 -91 -556 24 -228 106
-337 305 -400 218 -69 550 -55 1685 70 404 45 554 60 725 71 397 27 771 108
995 218 151 74 250 197 296 367 24 89 24 252 -1 350 -30 123 -93 261 -715
1565 -144 303 -282 594 -306 648 -179 396 -333 630 -461 699 -87 47 -266 62
-400 33z m412 -239 c118 -55 204 -196 505 -831 347 -731 659 -1420 736 -1627
89 -239 118 -445 80 -570 -70 -233 -384 -397 -939 -492 -339 -59 -1806 -192
-2184 -199 -123 -2 -143 0 -184 19 -62 29 -116 87 -152 162 l-30 64 18 106
c198 1236 836 2396 1775 3232 180 160 261 189 375 136z"/>
<path d="M11524 13952 c-50 -70 -281 -404 -514 -742 -787 -1144 -815 -1184
-904 -1277 -81 -86 -183 -157 -281 -197 -39 -15 -79 -32 -90 -36 -16 -7 -11
-9 19 -9 64 -1 245 -31 347 -56 381 -96 704 -279 979 -555 64 -63 144 -153
179 -200 l64 -85 -8 55 c-38 264 69 655 329 1199 57 119 143 306 191 416 224
512 360 815 445 993 50 107 90 195 88 196 -108 84 -528 324 -699 400 l-55 24
-90 -126z"/>
<path d="M7340 13958 c-193 -100 -435 -248 -603 -369 -10 -8 86 -217 473
-1029 677 -1419 654 -1363 655 -1580 0 -69 -4 -147 -8 -175 l-9 -50 78 105
c192 259 488 500 784 638 181 85 443 159 665 188 l50 6 -55 21 c-235 88 -536
393 -865 877 -96 141 -138 200 -568 787 -114 156 -264 365 -333 465 -69 101
-127 184 -128 185 -1 1 -62 -30 -136 -69z"/>
<path d="M9300 11570 c-798 -123 -1437 -705 -1634 -1489 -75 -295 -75 -667 0
-962 182 -724 754 -1290 1471 -1458 221 -52 518 -66 731 -36 896 127 1580 811
1707 1707 19 132 19 404 0 536 -127 894 -815 1584 -1703 1706 -153 22 -422 20
-572 -4z m-307 -390 c140 -53 237 -182 253 -338 7 -65 -14 -166 -47 -221 -11
-18 -18 -35 -16 -37 2 -3 19 2 38 10 19 8 73 25 119 37 74 20 109 23 260 23
199 0 268 -13 433 -84 50 -22 92 -38 94 -37 1 2 -2 19 -7 38 -15 53 -12 141 8
207 58 184 243 301 432 271 161 -25 284 -136 326 -294 44 -163 -30 -344 -178
-433 -64 -38 -179 -65 -239 -56 l-40 7 55 -86 c93 -142 153 -303 172 -460 l6
-58 23 54 c38 95 92 146 179 172 147 44 345 -13 465 -133 64 -64 129 -185 151
-281 23 -97 -9 -289 -81 -499 -235 -679 -826 -1165 -1540 -1267 -133 -19 -385
-19 -518 0 -774 110 -1397 670 -1586 1425 -38 151 -55 294 -55 462 l0 154 36
60 c74 123 140 169 244 168 70 -1 278 -52 341 -85 91 -46 146 -118 188 -245
l28 -87 6 109 c14 248 122 487 302 670 l70 72 -86 4 c-69 3 -97 10 -145 33
-76 37 -152 114 -190 190 -26 55 -29 69 -29 165 0 99 2 110 33 172 91 186 302
270 495 198z"/>
<path d="M8729 11127 c-108 -46 -176 -124 -205 -236 -28 -112 2 -224 85 -314
92 -99 259 -132 382 -75 69 32 129 90 166 160 25 47 28 64 28 148 0 84 -3 102
-28 151 -32 67 -100 132 -165 162 -73 32 -192 34 -263 4z m218 -173 c47 -35
66 -70 71 -128 4 -46 0 -62 -22 -100 -28 -48 -90 -86 -142 -86 -36 0 -103 30
-126 56 -73 82 -53 207 42 264 45 27 137 24 177 -6z m-270 -343 c142 -126 363
-68 438 115 22 52 25 55 25 28 1 -127 -117 -241 -260 -252 -167 -12 -295 87
-315 243 l-6 50 35 -72 c23 -46 53 -86 83 -112z"/>
<path d="M10393 10981 c-94 -35 -157 -94 -199 -186 -59 -127 -27 -283 78 -381
75 -70 125 -89 233 -89 83 0 95 3 153 34 120 65 182 168 182 301 0 92 -28 165
-88 229 -91 97 -242 136 -359 92z m187 -171 c22 -11 52 -38 66 -60 23 -35 26
-47 22 -100 -5 -70 -26 -104 -84 -137 -125 -72 -282 47 -244 187 29 108 142
160 240 110z m-274 -329 c57 -63 105 -85 189 -86 132 0 228 64 275 185 21 55
28 56 19 2 -23 -151 -142 -240 -308 -230 -90 6 -141 28 -194 87 -43 48 -63 93
-72 158 l-6 48 29 -61 c16 -34 47 -80 68 -103z"/>
<path d="M9445 10596 c-453 -74 -793 -432 -846 -890 -42 -357 135 -741 431
-937 373 -247 838 -233 1190 37 268 204 420 564 381 900 -28 240 -122 437
-290 604 -149 148 -304 233 -506 276 -98 21 -264 26 -360 10z m340 -65 c585
-121 914 -726 697 -1283 -93 -240 -307 -449 -550 -538 -624 -228 -1282 230
-1282 890 0 596 554 1051 1135 931z"/>
<path d="M9415 10464 c-162 -35 -307 -116 -435 -244 -176 -176 -260 -376 -260
-620 0 -244 84 -444 260 -620 176 -176 376 -260 620 -260 244 0 444 84 620
260 176 176 260 376 260 620 0 244 -84 444 -260 620 -131 131 -275 210 -442
244 -96 20 -269 19 -363 0z"/>
<path d="M8120 9611 c-53 -17 -107 -51 -146 -93 -209 -218 -60 -571 241 -571
94 0 170 30 233 91 169 165 127 440 -83 550 -40 20 -67 26 -135 28 -47 2 -96
0 -110 -5z m169 -176 c117 -60 126 -228 17 -294 -71 -43 -152 -34 -210 23 -79
80 -61 206 38 267 38 23 115 25 155 4z m-335 -231 c36 -79 77 -126 138 -159
71 -39 159 -40 239 -3 71 33 105 69 145 153 l34 70 -6 -45 c-3 -25 -17 -69
-31 -97 -95 -202 -421 -202 -516 0 -23 47 -44 137 -33 137 3 0 16 -25 30 -56z"/>
<path d="M10768 9367 c-102 -38 -167 -99 -210 -194 -17 -37 -22 -67 -22 -133
0 -73 3 -93 27 -140 62 -122 174 -194 302 -194 99 -1 163 24 234 90 82 75 106
132 106 249 0 103 -19 152 -85 227 -58 67 -135 101 -234 105 -52 2 -94 -2
-118 -10z m179 -173 c73 -35 110 -127 84 -207 -18 -52 -80 -104 -134 -112 -88
-13 -182 57 -194 145 -6 45 17 118 45 143 53 48 135 61 199 31z m-253 -352
c43 -39 121 -72 172 -72 12 0 52 9 89 21 83 26 149 87 183 169 l22 55 -5 -48
c-18 -170 -198 -275 -379 -223 -80 24 -158 99 -180 175 -28 96 -20 111 19 34
20 -41 54 -88 79 -111z"/>
<path d="M9357 8526 c-65 -18 -150 -79 -186 -133 -96 -144 -76 -335 45 -442
79 -69 125 -86 234 -86 84 0 101 3 148 28 280 148 239 553 -65 632 -68 18
-112 18 -176 1z m158 -175 c130 -60 137 -231 12 -302 -79 -44 -191 -8 -231 74
-39 83 -4 186 76 226 52 26 91 26 143 2z m-264 -336 c131 -149 395 -90 463
105 23 63 34 51 16 -18 -34 -138 -140 -216 -290 -215 -145 1 -262 101 -276
234 l-6 54 30 -61 c16 -33 45 -78 63 -99z"/>
<path d="M15377 10530 c-42 -137 -142 -286 -231 -346 -28 -19 -57 -34 -65 -34
-11 0 -12 -13 -7 -67 4 -38 11 -162 16 -278 9 -194 9 -256 -5 -511 l-5 -91 42
-12 c131 -39 240 -130 292 -243 l34 -71 6 49 c32 244 46 770 27 1050 -12 168
-52 526 -69 604 -8 34 -9 33 -35 -50z"/>
<path d="M11483 10530 c142 -344 184 -503 207 -781 27 -320 -38 -690 -174
-1003 l-17 -38 43 35 c175 143 631 270 1083 302 214 15 358 29 825 80 502 55
750 80 940 93 l105 7 8 120 c8 120 1 561 -12 685 l-6 65 -75 7 c-182 18 -587
51 -1120 93 -687 54 -1142 92 -1265 105 -211 24 -377 91 -506 207 -24 21 -40
31 -36 23z"/>
<path d="M7656 10456 c-138 -118 -486 -228 -881 -280 -66 -8 -214 -23 -330
-31 -115 -9 -430 -40 -700 -70 -495 -55 -743 -79 -935 -93 l-105 -7 -8 -120
c-8 -120 -1 -561 12 -685 l6 -65 70 -7 c126 -13 539 -47 1125 -93 687 -54
1142 -92 1265 -105 211 -24 377 -91 506 -207 24 -21 40 -31 36 -23 -111 268
-141 363 -177 547 -77 400 -25 849 144 1236 9 20 15 37 14 37 -2 -1 -21 -16
-42 -34z"/>
<path d="M3746 10274 c-32 -243 -45 -757 -27 -1044 11 -171 52 -528 69 -610 8
-34 9 -33 35 50 42 137 142 286 231 346 28 19 57 34 65 34 11 0 12 13 7 68 -4
37 -11 159 -16 272 -9 189 -8 288 5 521 l5 86 -42 12 c-131 39 -240 130 -292
243 l-34 71 -6 -49z"/>
<path d="M14485 9170 c-202 -14 -518 -44 -1025 -100 -445 -49 -596 -64 -765
-75 -398 -27 -772 -109 -995 -218 -152 -75 -250 -197 -296 -367 -23 -86 -23
-261 0 -350 33 -126 78 -225 616 -1355 194 -407 375 -789 402 -850 186 -409
335 -637 465 -707 99 -54 314 -63 455 -18 168 52 182 62 417 297 222 224 384
409 556 638 469 624 818 1360 1004 2117 79 317 101 456 91 556 -26 248 -131
363 -380 418 -82 18 -362 25 -545 14z m375 -117 c62 -28 117 -86 153 -161 l30
-64 -18 -106 c-181 -1125 -723 -2187 -1530 -2998 -191 -192 -347 -329 -409
-361 -147 -75 -280 -12 -395 185 -180 312 -916 1887 -1056 2262 -141 376 -130
600 36 754 145 135 434 244 822 310 250 44 1001 118 1712 171 546 40 583 40
655 8z"/>
<path d="M4305 9043 c-117 -16 -225 -62 -272 -116 -112 -127 -170 -260 -194
-442 l-12 -90 52 -208 c225 -905 648 -1723 1267 -2447 181 -212 599 -616 728
-703 57 -40 186 -85 259 -93 88 -9 183 20 265 80 188 139 346 429 812 1496 95
217 219 492 275 610 57 119 122 260 145 315 139 326 222 665 207 844 -21 235
-205 435 -482 521 -90 27 -275 46 -1135 115 -1170 93 -1322 105 -1410 115 -82
9 -443 11 -505 3z m825 -124 c537 -42 1297 -112 1635 -150 430 -49 653 -115
781 -232 102 -93 135 -183 135 -372 0 -216 -63 -478 -191 -800 -193 -483 -875
-1923 -952 -2011 -16 -18 -55 -46 -86 -61 -49 -24 -69 -28 -143 -28 -87 1 -87
1 -142 44 -162 124 -405 349 -565 521 -647 695 -1087 1492 -1322 2395 -89 338
-108 491 -71 570 35 76 109 127 211 146 66 12 417 1 710 -22z"/>
<path d="M9554 7460 c-146 -21 -280 -92 -402 -212 -74 -72 -160 -192 -578
-798 -165 -239 -419 -607 -564 -817 -420 -607 -455 -659 -513 -772 -115 -221
-133 -332 -74 -476 41 -100 98 -184 173 -255 131 -124 182 -146 529 -235 470
-121 858 -173 1356 -182 567 -10 1014 38 1534 167 335 83 628 181 722 242 89
57 176 153 204 225 34 88 31 201 -10 320 -79 237 -239 481 -972 1479 -101 138
-211 290 -244 338 -239 348 -343 483 -500 645 -194 201 -357 309 -495 331 -72
11 -91 11 -166 0z m188 -170 c227 -70 529 -348 853 -785 351 -473 1059 -1497
1132 -1637 52 -101 32 -238 -52 -336 -31 -37 -40 -41 -235 -110 -1117 -391
-2283 -421 -3415 -87 -323 96 -399 135 -444 228 -28 59 -28 138 2 220 50 137
292 504 910 1377 424 599 567 788 698 920 200 204 366 267 551 210z"/>
<path d="M12235 5964 c-148 -103 -435 -258 -652 -353 -77 -34 -120 -58 -116
-65 4 -6 41 -60 83 -121 43 -60 99 -143 125 -183 l48 -72 141 74 c194 101 427
244 599 367 8 6 -162 389 -172 388 -3 0 -28 -16 -56 -35z"/>
<path d="M6931 5764 c-57 -118 -101 -217 -99 -218 99 -79 528 -324 699 -400
l56 -25 40 57 c22 31 88 126 147 210 60 84 107 155 105 156 -2 2 -48 22 -101
44 -215 92 -470 225 -646 339 -45 29 -86 53 -90 53 -4 0 -54 -97 -111 -216z"/>
<path d="M12660 5037 c-160 -108 -380 -239 -543 -322 l-117 -60 7 -45 c5 -25
8 -88 8 -140 0 -86 -3 -102 -31 -160 -17 -36 -46 -83 -64 -103 -17 -20 -30
-37 -27 -37 3 0 66 27 139 60 283 129 606 310 863 484 185 125 482 352 473
362 -2 1 -28 -5 -58 -13 -78 -22 -276 -21 -360 1 -36 9 -82 28 -102 41 -21 14
-41 25 -45 24 -5 0 -69 -41 -143 -92z"/>
<path d="M6460 5003 c-30 -25 -84 -60 -120 -77 -61 -29 -72 -31 -178 -31
l-112 0 27 -20 c408 -303 870 -562 1328 -745 181 -72 178 -71 123 -12 -109
117 -188 279 -196 402 l-5 75 -176 87 c-186 92 -394 210 -543 309 -49 32 -90
59 -91 58 -1 0 -27 -21 -57 -46z"/>
</g>
</svg>
